<?xml version="1.0" encoding="UTF-8" standalone="no"?>
<!DOCTYPE svg PUBLIC "-//W3C//DTD SVG 1.1//EN" "http://www.w3.org/Graphics/SVG/1.1/DTD/svg11.dtd">
<svg xmlns="http://www.w3.org/2000/svg" version="1.1" viewBox="0.00 0.00 59.00 59.00">
<path fill="#000000" d="
  M 17.36 37.27
  Q 16.97 37.16 16.58 37.30
  Q 16.00 37.51 16.47 37.90
  Q 18.01 39.23 18.77 40.92
  Q 20.33 44.37 24.27 43.60
  Q 24.99 43.45 24.99 44.19
  L 25.00 46.72
  A 0.98 0.98 0.0 0 1 23.66 47.63
  Q 13.53 43.57 11.63 33.10
  C 8.66 16.80 27.06 4.94 40.53 15.21
  C 45.37 18.90 48.23 25.47 47.61 31.41
  Q 46.41 42.97 35.50 47.60
  A 1.09 1.09 0.0 0 1 33.98 46.53
  C 34.08 44.76 34.47 40.32 33.21 38.80
  Q 32.73 38.23 33.47 38.09
  Q 37.78 37.31 39.24 35.23
  Q 42.79 30.16 39.57 24.30
  Q 39.27 23.74 39.39 23.12
  Q 39.71 21.49 39.26 19.69
  Q 39.05 18.84 38.19 19.04
  Q 36.15 19.52 34.51 20.63
  Q 34.00 20.98 33.40 20.83
  Q 29.43 19.82 25.77 20.79
  Q 25.23 20.94 24.73 20.70
  L 21.22 19.05
  Q 20.03 18.49 19.72 19.77
  Q 19.29 21.51 19.64 23.33
  Q 19.75 23.93 19.42 24.44
  Q 16.53 28.98 19.07 34.13
  Q 20.74 37.52 25.33 38.01
  Q 26.29 38.11 25.72 38.89
  Q 25.32 39.41 25.17 40.07
  A 1.18 1.18 0.0 0 1 24.36 40.94
  C 20.91 41.99 20.62 39.54 18.62 37.92
  Q 18.06 37.46 17.36 37.27
  Z"
/>
</svg>
