<?xml version="1.0" encoding="UTF-8" standalone="no"?>
<!DOCTYPE svg PUBLIC "-//W3C//DTD SVG 1.1//EN" "http://www.w3.org/Graphics/SVG/1.1/DTD/svg11.dtd">
<svg xmlns="http://www.w3.org/2000/svg" version="1.1" viewBox="0.00 0.00 54.00 54.00">
<circle fill="#000000" cx="14.81" cy="14.84" r="3.75"/>
<path fill="#000000" d="
  M 28.87 23.59
  C 32.96 19.44 41.31 20.03 42.10 26.98
  Q 42.75 32.72 42.39 42.09
  Q 42.38 42.46 42.01 42.46
  L 36.50 42.48
  Q 36.02 42.48 36.02 42.00
  L 35.98 30.27
  Q 35.97 27.37 33.14 26.73
  Q 31.89 26.45 30.37 27.24
  A 3.18 3.17 76.5 0 0 28.67 30.02
  L 28.60 41.92
  Q 28.60 42.46 28.06 42.46
  L 22.66 42.47
  Q 22.10 42.47 22.10 41.91
  L 22.11 22.33
  Q 22.11 21.51 22.92 21.51
  L 27.79 21.51
  Q 28.59 21.51 28.50 22.30
  L 28.38 23.36
  Q 28.28 24.20 28.87 23.59
  Z"
/>
<rect fill="#000000" x="11.53" y="21.51" width="6.52" height="20.96" rx="0.39"/>
</svg>
