<?xml version="1.0" encoding="UTF-8" standalone="no"?>
<!DOCTYPE svg PUBLIC "-//W3C//DTD SVG 1.1//EN" "http://www.w3.org/Graphics/SVG/1.1/DTD/svg11.dtd">
<svg xmlns="http://www.w3.org/2000/svg" version="1.1" viewBox="0.00 0.00 41.00 41.00">
<path fill="#000000" d="
  M 5.07 29.93
  C -3.84 16.83 6.25 -0.54 22.09 1.13
  C 38.22 2.84 44.09 23.15 31.62 33.40
  Q 23.88 39.76 13.42 36.38
  Q 12.95 36.23 12.49 36.41
  L 3.60 39.91
  Q 2.89 40.19 3.08 39.46
  L 5.25 30.95
  Q 5.39 30.40 5.07 29.93
  Z
  M 6.12 30.65
  L 4.28 38.07
  A 0.42 0.42 0.0 0 0 4.84 38.56
  L 12.52 35.56
  Q 13.00 35.38 13.48 35.54
  Q 23.37 38.92 30.88 32.99
  C 38.81 26.72 39.84 15.31 33.19 7.72
  C 26.71 0.32 15.16 -0.24 8.01 6.59
  C 1.56 12.74 0.83 22.36 5.92 29.57
  Q 6.26 30.06 6.12 30.65
  Z"
/>
<path fill="#000000" d="
  M 8.42 28.96
  Q 2.57 20.62 6.75 12.45
  C 11.16 3.84 22.33 1.70 29.70 7.86
  C 37.33 14.23 36.76 25.83 28.68 31.55
  Q 21.81 36.42 13.34 32.83
  Q 12.89 32.64 12.45 32.82
  L 7.96 34.59
  A 0.38 0.38 0.0 0 1 7.45 34.14
  L 8.61 30.06
  Q 8.78 29.47 8.42 28.96
  Z
  M 16.98 17.51
  L 17.96 16.59
  Q 18.39 16.18 18.19 15.61
  L 16.80 11.81
  A 0.91 0.90 -9.3 0 0 15.96 11.21
  Q 12.38 11.14 12.33 14.78
  C 12.25 20.79 18.12 26.00 23.30 27.85
  C 25.86 28.76 29.53 27.97 29.26 24.58
  Q 29.21 23.95 28.62 23.71
  L 25.02 22.23
  Q 24.55 22.04 24.16 22.37
  L 22.76 23.55
  Q 22.30 23.94 21.81 23.60
  Q 18.89 21.57 16.86 18.68
  A 0.90 0.89 -39.6 0 1 16.98 17.51
  Z"
/>
</svg>
